{"accessors":[{"bufferView":2,"componentType":5126,"count":14051,"max":[4.7281622886657715,10.515154838562012,5.597357273101807],"min":[-4.667480945587158,0,-5.597357273101807],"type":"VEC3"},{"bufferView":2,"byteOffset":168612,"componentType":5126,"count":14051,"max":[1,1,1],"min":[-1,-1,-1],"type":"VEC3"},{"bufferView":1,"componentType":5126,"count":14051,"max":[0.9885750412940979,0.990485668182373],"min":[0.012467175722122192,0.007014036178588867],"type":"VEC2"},{"bufferView":1,"byteOffset":112408,"componentType":5126,"count":14051,"max":[0.9885750412940979,0.990485668182373],"min":[0.012467175722122192,0.007014036178588867],"type":"VEC2"},{"bufferView":1,"byteOffset":224816,"componentType":5126,"count":14051,"max":[0.9885750412940979,0.990485668182373],"min":[0.012467175722122192,0.007014036178588867],"type":"VEC2"},{"bufferView":0,"componentType":5125,"count":76992,"type":"SCALAR"}],"asset":{"extras":{"author":"siska.musiam (https://sketchfab.com/siska.musiam)","license":"CC-BY-4.0 (http://creativecommons.org/licenses/by/4.0/)","source":"https://sketchfab.com/3d-models/atom-c50af48ce3124e768b7203d1135a5f85","title":"Atom"},"generator":"Sketchfab-15.27.0","version":"2.0"},"bufferViews":[{"buffer":0,"byteLength":307968,"name":"floatBufferViews","target":34963},{"buffer":0,"byteLength":337224,"byteOffset":307968,"byteStride":8,"name":"floatBufferViews","target":34962},{"buffer":0,"byteLength":337224,"byteOffset":645192,"byteStride":12,"name":"floatBufferViews","target":34962}],"buffers":[{"byteLength":982416,"uri":"data:application/octet-stream;base64,"}],"extensionsRequired":["KHR_materials_pbrSpecularGlossiness"],"extensionsUsed":["KHR_materials_pbrSpecularGlossiness"],"images":[{"uri":"data:application/octet-stream;base64,"},{"uri":"data:application/octet-stream;base64,"}],"materials":[{"doubleSided":true,"extensions":{"KHR_materials_pbrSpecularGlossiness":{"diffuseFactor":[1,1,1,1],"diffuseTexture":{"index":0},"glossinessFactor":1,"specularFactor":[1,1,1],"specularGlossinessTexture":{"index":1}}},"name":"material"}],"meshes":[{"name":"Object_0","primitives":[{"attributes":{"NORMAL":1,"POSITION":0,"TEXCOORD_0":2,"TEXCOORD_1":3,"TEXCOORD_2":4},"indices":5,"material":0,"mode":4}]}],"nodes":[{"children":[1],"matrix":[1,0,0,0,0,2.220446049250313e-16,-1,0,0,1,2.220446049250313e-16,0,0,0,0,1],"name":"Sketchfab_model"},{"children":[2],"name":"root"},{"children":[3],"matrix":[1,0,0,0,0,2.220446049250313e-16,1,0,0,-1,2.220446049250313e-16,0,0,0,0,1],"name":"GLTF_SceneRootNode"},{"children":[4],"name":"root_0"},{"children":[5],"matrix":[0.048691634088754654,0,0,0,0,0.048691634088754654,0,0,0,0,0.048691634088754654,0,-0.0014773074071854353,-0.256000280380249,0.2725439965724945,1],"name":"node_id34_1"},{"mesh":0,"name":"Object_5"}],"samplers":[{"magFilter":9729,"minFilter":9987,"wrapS":10497,"wrapT":10497}],"scene":0,"scenes":[{"name":"Sketchfab_Scene","nodes":[0]}],"textures":[{"sampler":0,"source":0},{"sampler":0,"source":1}]}